<svg width="25" height="26" viewBox="0 0 25 26" fill="none" xmlns="http://www.w3.org/2000/svg">
<path d="M22.6562 4.0625H2.34375C1.91162 4.0625 1.5625 4.42559 1.5625 4.875V21.125C1.5625 21.5744 1.91162 21.9375 2.34375 21.9375H22.6562C23.0884 21.9375 23.4375 21.5744 23.4375 21.125V4.875C23.4375 4.42559 23.0884 4.0625 22.6562 4.0625ZM21.6797 6.87578V20.1094H3.32031V6.87578L2.64648 6.32988L3.60596 5.04766L4.65088 5.89316H20.3516L21.3965 5.04766L22.356 6.32988L21.6797 6.87578V6.87578ZM20.3516 5.89062L12.5 12.2383L4.64844 5.89062L3.60352 5.04512L2.64404 6.32734L3.31787 6.87324L11.6577 13.617C11.8976 13.8108 12.1926 13.916 12.4963 13.916C12.8001 13.916 13.0951 13.8108 13.335 13.617L21.6797 6.87578L22.3535 6.32988L21.394 5.04766L20.3516 5.89062Z" fill="#AF48FF"/>
</svg>
